<svg width="158" height="40" viewBox="0 0 158 40" fill="none" xmlns="http://www.w3.org/2000/svg">
<path d="M0.201705 31V9.18182H6.80682V13.1875H7.0483C7.50284 11.8617 8.26989 10.8153 9.34943 10.0483C10.429 9.28125 11.7169 8.89773 13.2131 8.89773C14.7282 8.89773 16.0256 9.28598 17.1051 10.0625C18.1847 10.839 18.8712 11.8807 19.1648 13.1875H19.392C19.7992 11.8902 20.5947 10.8532 21.7784 10.0767C22.9621 9.29072 24.3589 8.89773 25.9688 8.89773C28.0331 8.89773 29.7093 9.56061 30.9972 10.8864C32.285 12.2027 32.929 14.0114 32.929 16.3125V31H25.983V17.9034C25.983 16.8144 25.7036 15.9858 25.1449 15.4176C24.5862 14.84 23.8617 14.5511 22.9716 14.5511C22.0152 14.5511 21.2623 14.8636 20.7131 15.4886C20.1733 16.1042 19.9034 16.9328 19.9034 17.9744V31H13.2273V17.8324C13.2273 16.8191 12.9527 16.0189 12.4034 15.4318C11.8542 14.8447 11.1297 14.5511 10.2301 14.5511C9.62405 14.5511 9.08902 14.6979 8.625 14.9915C8.16098 15.2756 7.7964 15.6828 7.53125 16.2131C7.27557 16.7434 7.14773 17.3684 7.14773 18.0881V31H0.201705ZM40.6989 39.1818C39.8655 39.1818 39.0795 39.1155 38.3409 38.983C37.6023 38.8598 36.9678 38.6941 36.4375 38.4858L37.9716 33.4432C38.6534 33.6705 39.2689 33.803 39.8182 33.8409C40.3769 33.8788 40.8551 33.7888 41.2528 33.571C41.66 33.3627 41.9725 32.9886 42.1903 32.4489L42.4602 31.7955L34.7045 9.18182H41.9773L45.9972 24.75H46.2244L50.3011 9.18182H57.6165L49.392 33.0881C48.9943 34.2813 48.4309 35.3324 47.7017 36.2415C46.982 37.16 46.0492 37.8797 44.9034 38.4006C43.767 38.9214 42.3655 39.1818 40.6989 39.1818ZM69.7614 31.4119C67.4602 31.4119 65.4858 30.9384 63.8381 29.9915C62.1998 29.0445 60.9403 27.7282 60.0597 26.0426C59.179 24.3475 58.7386 22.3873 58.7386 20.1619C58.7386 17.9271 59.179 15.9669 60.0597 14.2812C60.9498 12.5862 62.214 11.2652 63.8523 10.3182C65.5 9.37121 67.465 8.89773 69.7472 8.89773C71.7642 8.89773 73.5208 9.26231 75.017 9.99148C76.5227 10.7206 77.697 11.7528 78.5398 13.0881C79.392 14.4138 79.8419 15.9716 79.8892 17.7614H73.3977C73.2652 16.6439 72.8864 15.768 72.2614 15.1335C71.6458 14.4991 70.8409 14.1818 69.8466 14.1818C69.0417 14.1818 68.3362 14.4091 67.7301 14.8636C67.1241 15.3087 66.6506 15.9716 66.3097 16.8523C65.9782 17.7235 65.8125 18.803 65.8125 20.0909C65.8125 21.3788 65.9782 22.4678 66.3097 23.358C66.6506 24.2386 67.1241 24.9062 67.7301 25.3608C68.3362 25.8059 69.0417 26.0284 69.8466 26.0284C70.4905 26.0284 71.0587 25.8911 71.5511 25.6165C72.053 25.3419 72.465 24.9394 72.7869 24.4091C73.1089 23.8693 73.3125 23.2159 73.3977 22.4489H79.8892C79.8229 24.2481 79.3731 25.8201 78.5398 27.1648C77.7159 28.5095 76.5559 29.5559 75.0597 30.304C73.5729 31.0426 71.8068 31.4119 69.7614 31.4119ZM90.3899 18.5568V31H83.4439V1.90909H90.1626V13.1875H90.4041C90.8965 11.8428 91.7015 10.7917 92.8189 10.0341C93.9458 9.27652 95.3236 8.89773 96.9524 8.89773C98.4865 8.89773 99.8217 9.23864 100.958 9.92045C102.094 10.5928 102.975 11.5445 103.6 12.7756C104.235 14.0066 104.547 15.446 104.538 17.0938V31H97.5916V18.4574C97.6011 17.2453 97.2981 16.2983 96.6825 15.6165C96.067 14.9347 95.2005 14.5938 94.0831 14.5938C93.3539 14.5938 92.71 14.7547 92.1513 15.0767C91.602 15.3892 91.1712 15.839 90.8587 16.4261C90.5556 17.0133 90.3994 17.7235 90.3899 18.5568ZM115.024 31.3693C113.632 31.3693 112.396 31.1373 111.317 30.6733C110.247 30.1998 109.399 29.4896 108.774 28.5426C108.159 27.5862 107.851 26.3883 107.851 24.9489C107.851 23.7367 108.064 22.714 108.49 21.8807C108.916 21.0473 109.503 20.3703 110.251 19.8494C111 19.3286 111.861 18.9356 112.837 18.6705C113.812 18.3958 114.854 18.2112 115.962 18.1165C117.202 18.0028 118.201 17.8845 118.959 17.7614C119.716 17.6288 120.266 17.4441 120.607 17.2074C120.957 16.9612 121.132 16.6155 121.132 16.1705V16.0994C121.132 15.3703 120.881 14.8068 120.379 14.4091C119.877 14.0114 119.2 13.8125 118.348 13.8125C117.429 13.8125 116.691 14.0114 116.132 14.4091C115.573 14.8068 115.218 15.3561 115.067 16.0568L108.661 15.8295C108.85 14.5038 109.338 13.3201 110.124 12.2784C110.919 11.2273 112.008 10.4034 113.391 9.80682C114.783 9.20076 116.454 8.89773 118.405 8.89773C119.797 8.89773 121.08 9.06345 122.254 9.39489C123.429 9.71686 124.451 10.1903 125.322 10.8153C126.194 11.4309 126.866 12.1884 127.339 13.0881C127.822 13.9877 128.064 15.0152 128.064 16.1705V31H121.53V27.9602H121.359C120.971 28.6989 120.474 29.3239 119.868 29.8352C119.271 30.3466 118.566 30.7301 117.751 30.9858C116.946 31.2415 116.037 31.3693 115.024 31.3693ZM117.169 26.8239C117.917 26.8239 118.589 26.6723 119.186 26.3693C119.792 26.0663 120.275 25.6496 120.635 25.1193C120.995 24.5795 121.175 23.9545 121.175 23.2443V21.1705C120.976 21.2746 120.734 21.3693 120.45 21.4545C120.176 21.5398 119.873 21.6203 119.541 21.696C119.21 21.7718 118.869 21.8381 118.518 21.8949C118.168 21.9517 117.832 22.0038 117.51 22.0511C116.857 22.1553 116.298 22.3163 115.834 22.5341C115.379 22.7519 115.029 23.036 114.783 23.3864C114.546 23.7273 114.428 24.1345 114.428 24.608C114.428 25.3277 114.683 25.8769 115.195 26.2557C115.715 26.6345 116.374 26.8239 117.169 26.8239ZM132.311 31V9.18182H139.257V31H132.311ZM135.791 6.6392C134.816 6.6392 133.978 6.31723 133.277 5.6733C132.576 5.01989 132.226 4.2339 132.226 3.31534C132.226 2.40625 132.576 1.62973 133.277 0.985795C133.978 0.332385 134.816 0.00568008 135.791 0.00568008C136.776 0.00568008 137.614 0.332385 138.305 0.985795C139.006 1.62973 139.357 2.40625 139.357 3.31534C139.357 4.2339 139.006 5.01989 138.305 5.6733C137.614 6.31723 136.776 6.6392 135.791 6.6392ZM143.678 31V9.18182H150.425V13.1591H150.653C151.05 11.7197 151.699 10.6496 152.599 9.94886C153.498 9.23864 154.545 8.88352 155.738 8.88352C156.06 8.88352 156.391 8.9072 156.732 8.95455C157.073 8.99242 157.39 9.05398 157.684 9.1392V15.1761C157.353 15.0625 156.917 14.9725 156.377 14.9062C155.847 14.84 155.373 14.8068 154.957 14.8068C154.133 14.8068 153.389 14.9915 152.727 15.3608C152.073 15.7206 151.557 16.2273 151.178 16.8807C150.809 17.5246 150.624 18.2822 150.624 19.1534V31H143.678Z" fill="#FCFCFC"/>
</svg>
